<svg width="489" height="87" viewBox="0 0 489 87" fill="none" xmlns="http://www.w3.org/2000/svg">
<path d="M47.1827 2.50625C63.1906 -5.54785 81.8894 6.86292 80.6593 24.7253L78.0115 63.1752C76.7937 80.8582 56.9184 90.6414 42.1395 80.8323L10.3294 59.7194C-4.44948 49.9103 -3.12228 27.8164 12.7248 19.8432L47.1827 2.50625Z" fill="#F052C4"/>
<path d="M58.5984 18.9745C67.453 3.40722 89.9029 3.38324 98.7907 18.9316L117.922 52.4002C126.721 67.7924 115.607 86.9402 97.8631 86.9592L59.6718 87C41.928 87.0189 30.773 67.8949 39.5386 52.4839L58.5984 18.9745Z" fill="#577BF9"/>
<path d="M74.7368 7.62082C78.7431 12.0037 81.1242 17.9753 80.6593 24.7253L78.0115 63.1752C76.9264 78.931 61.029 88.4151 47.1224 83.3565C37.3915 77.0718 33.1133 63.7803 39.5386 52.4839L58.5984 18.9745C62.279 12.5036 68.3086 8.7184 74.7368 7.62082Z" fill="#B557FF" style="mix-blend-mode:lighten"/>
<path d="M156.062 72.25C154.229 72.5 152.562 72.4167 151.062 72C149.562 71.5833 148.208 70.9375 147 70.0625C145.833 69.1875 144.812 68.1458 143.938 66.9375C143.104 65.7292 142.417 64.4375 141.875 63.0625C141.5 60.2292 141.604 57.6667 142.188 55.375C142.771 53.0417 143.625 50.8958 144.75 48.9375C145.875 46.9792 147.146 45.1458 148.562 43.4375C150.021 41.7292 151.417 40.0833 152.75 38.5C153.042 38.625 153.271 38.625 153.438 38.5C153.646 38.375 153.812 38.2083 153.938 38C154.104 37.7917 154.271 37.5833 154.438 37.375C154.646 37.1667 154.875 37.0208 155.125 36.9375C155.292 36.5625 155.5 36.25 155.75 36C156.042 35.75 156.333 35.5208 156.625 35.3125C156.958 35.0625 157.25 34.8125 157.5 34.5625C157.792 34.3125 158.042 34 158.25 33.625C158.667 33.5417 159.021 33.3958 159.312 33.1875C159.646 32.9792 159.938 32.75 160.188 32.5C160.479 32.25 160.771 32.0208 161.062 31.8125C161.354 31.6042 161.708 31.4375 162.125 31.3125V30.5C163.042 30.0833 163.708 29.625 164.125 29.125C164.542 28.625 165.042 27.9792 165.625 27.1875C166.083 27.1458 166.438 27.125 166.688 27.125C166.979 27.125 167.417 27.0833 168 27C168.375 26.2917 168.729 25.7708 169.062 25.4375C169.396 25.1042 169.875 24.7292 170.5 24.3125C171.125 24.6458 171.792 24.8542 172.5 24.9375C173.208 24.9792 173.854 25.2917 174.438 25.875C174.479 26.375 174.625 26.7708 174.875 27.0625C175.125 27.3125 175.396 27.5625 175.688 27.8125C175.979 28.0208 176.271 28.25 176.562 28.5C176.854 28.75 177.042 29.1042 177.125 29.5625C177.333 29.5625 177.458 29.5208 177.5 29.4375C177.583 29.3542 177.729 29.3333 177.938 29.375C178.021 29.7083 178.104 29.9792 178.188 30.1875C178.271 30.3958 178.354 30.5833 178.438 30.75C178.562 30.9167 178.667 31.1042 178.75 31.3125C178.875 31.5208 178.979 31.7708 179.062 32.0625C178.854 32.5625 178.667 33.1042 178.5 33.6875C178.333 34.2292 178 34.6042 177.5 34.8125C177.5 35.1458 177.625 35.3333 177.875 35.375C178.125 35.375 178.271 35.5208 178.312 35.8125C178.354 36.1875 178.292 36.5 178.125 36.75C179.292 38.7083 180.354 40.7708 181.312 42.9375C182.271 45.0625 183.354 47.1042 184.562 49.0625C184.479 49.6458 184.5 50.2292 184.625 50.8125C184.792 51.3542 184.979 51.8958 185.188 52.4375C185.438 52.9792 185.667 53.5208 185.875 54.0625C186.083 54.6042 186.229 55.1458 186.312 55.6875C186.396 56.3958 186.396 57.1667 186.312 58C186.229 58.7917 186.062 59.5625 185.812 60.3125C185.562 61.0625 185.229 61.7708 184.812 62.4375C184.396 63.0625 183.917 63.5417 183.375 63.875C182.708 64.7083 181.875 65.3958 180.875 65.9375C179.875 66.4375 178.958 67.0417 178.125 67.75C177.542 68.0833 176.917 68.3333 176.25 68.5C175.583 68.625 174.896 68.7708 174.188 68.9375C173.646 69.2708 173 69.6042 172.25 69.9375C171.5 70.2292 170.729 70.5 169.938 70.75C169.146 71 168.354 71.2083 167.562 71.375C166.771 71.5 166.062 71.5208 165.438 71.4375C163.938 71.9792 162.479 72.3542 161.062 72.5625C159.646 72.7708 157.979 72.6667 156.062 72.25ZM156.875 49.5C156.458 50.4583 155.958 51.3333 155.375 52.125C154.833 52.875 154.292 53.6458 153.75 54.4375C153.208 55.2292 152.729 56.0833 152.312 57C151.938 57.875 151.729 58.9167 151.688 60.125C152.521 60.8333 153.5 61.2708 154.625 61.4375C155.792 61.5625 156.979 61.5833 158.188 61.5C159.396 61.375 160.604 61.2083 161.812 61C163.021 60.7917 164.104 60.6875 165.062 60.6875C165.062 60.3125 165.229 60.125 165.562 60.125C167.312 59.9583 168.938 59.4792 170.438 58.6875C171.938 57.8542 173.5 57.0208 175.125 56.1875C175.333 55.6875 175.604 55.25 175.938 54.875C176.271 54.5 176.458 53.9583 176.5 53.25C176.292 52.875 176.146 52.5625 176.062 52.3125C176.021 52.0625 176 51.6875 176 51.1875C174.917 49.6875 173.979 48.0625 173.188 46.3125C172.396 44.5208 171.479 42.8333 170.438 41.25C170.354 41.4583 170.188 41.6667 169.938 41.875C169.688 42.0833 169.417 42.0417 169.125 41.75C169 42.1667 168.812 42.4583 168.562 42.625C168.312 42.75 168.021 42.8125 167.688 42.8125C167.396 42.8125 167.083 42.75 166.75 42.625C166.458 42.5 166.188 42.3333 165.938 42.125C164.479 43.2917 163.021 44.4167 161.562 45.5C160.146 46.5833 158.854 47.8542 157.688 49.3125C157.479 49.4375 157.354 49.4792 157.312 49.4375C157.271 49.3958 157.125 49.4167 156.875 49.5Z" fill="white"/>
<path d="M224.25 36.4375C224.333 37.3542 224.479 38.1458 224.688 38.8125C224.896 39.4792 225.125 40.125 225.375 40.75C225.583 41.3333 225.771 41.9167 225.938 42.5C226.146 43.0417 226.292 43.7083 226.375 44.5C226.042 45.5833 225.792 46.5833 225.625 47.5C225.5 48.4167 225.354 49.375 225.188 50.375C224.521 51.8333 223.875 53.125 223.25 54.25C222.625 55.375 222.125 56.3542 221.75 57.1875C221.542 57.3958 221.354 57.6458 221.188 57.9375C221.062 58.1875 220.917 58.4583 220.75 58.75C220.667 58.875 220.562 59.0625 220.438 59.3125C220.312 59.5625 220.208 59.7292 220.125 59.8125L218.875 59.375L218.625 60.9375L217.75 61.1875L217.125 61.9375C216.333 63.3125 215.5 64.4792 214.625 65.4375C213.75 66.3542 212.75 67.1875 211.625 67.9375C210.542 68.6458 209.292 69.3125 207.875 69.9375C206.5 70.5625 204.938 71.25 203.188 72C202.479 71.9167 201.854 71.875 201.312 71.875C200.812 71.8333 200.333 71.7917 199.875 71.75C199.083 71.75 198.104 71.6875 196.938 71.5625C196.812 71.2292 196.625 71 196.375 70.875C196.125 70.75 195.896 70.6875 195.688 70.6875C194.979 70.3542 194.438 69.875 194.062 69.25C193.729 68.5833 193.396 67.875 193.062 67.125C192.854 66.6667 192.646 66.25 192.438 65.875C192.229 65.4583 192 65.0417 191.75 64.625L192.812 64.3125L191.438 62.8125C191.354 62.6875 191.25 62.5833 191.125 62.5C191 62.375 190.896 62.25 190.812 62.125L190.75 61.125C190.625 58.25 190.562 55.625 190.562 53.25C190.604 50.8333 190.938 48.6875 191.562 46.8125V46.125C191.688 45.2083 191.812 44.4583 191.938 43.875C192.062 43.25 192.167 42.6667 192.25 42.125C192.375 41.2083 192.562 40.3542 192.812 39.5625C193.396 39.4375 193.833 39.2083 194.125 38.875C194.417 38.5 194.667 38.1667 194.875 37.875C195.458 37.8333 195.854 37.9167 196.062 38.125C196.271 38.3333 196.479 38.6667 196.688 39.125C196.896 39.5 197.146 39.9167 197.438 40.375C197.771 40.8333 198.25 41.1875 198.875 41.4375C198.958 41.7708 199.062 42.125 199.188 42.5C199.354 42.8333 199.521 43.2083 199.688 43.625C200.021 44.3333 200.312 45.0833 200.562 45.875C200.854 46.625 201.021 47.3542 201.062 48.0625C200.646 48.8542 200.312 49.7708 200.062 50.8125C199.854 51.8542 199.708 52.9167 199.625 54C199.583 55.0417 199.604 56.0625 199.688 57.0625C199.812 58.0208 200 58.8333 200.25 59.5L200.625 60.3125L201.688 60.1875C202.938 59.8542 204.062 59.5 205.062 59.125C206.104 58.7083 207.062 58.2292 207.938 57.6875C208.812 57.1458 209.646 56.5208 210.438 55.8125C211.229 55.0625 212.062 54.2083 212.938 53.25C213.812 52.2917 214.562 51.2083 215.188 50C215.854 48.75 216.396 47.4583 216.812 46.125C217.271 44.7917 217.604 43.4792 217.812 42.1875C218.062 40.8542 218.229 39.6042 218.312 38.4375C219.021 38.1875 219.375 37.6875 219.375 36.9375L219.25 36.25C219.083 36 219.083 35.7083 219.25 35.375C219.5 34.5833 220.083 33.9792 221 33.5625C221.667 33.9792 222.25 34.4375 222.75 34.9375C223.292 35.4375 223.792 35.9375 224.25 36.4375Z" fill="white"/>
<path d="M234.875 65.5C234.417 67.1667 234 68.4375 233.625 69.3125C233.292 70.1458 232.771 71.0208 232.062 71.9375C231.521 71.8542 231.146 71.9167 230.938 72.125C230.729 72.3333 230.5 72.5208 230.25 72.6875C229.875 72.7708 229.604 72.7708 229.438 72.6875C229.271 72.6042 229.125 72.5 229 72.375C228.875 72.2917 228.708 72.1875 228.5 72.0625C228.333 71.9792 228.062 71.9375 227.688 71.9375C227.604 71.6042 227.5 71.2917 227.375 71C227.292 70.7083 227.021 70.6042 226.562 70.6875C226.646 70.3542 226.667 70.0833 226.625 69.875C226.583 69.625 226.521 69.4167 226.438 69.25C226.396 69.0417 226.354 68.8542 226.312 68.6875C226.271 68.4792 226.292 68.2292 226.375 67.9375C226.167 67.9375 226 67.7917 225.875 67.5C225.75 67.2083 225.604 66.9167 225.438 66.625C225.562 65.875 225.688 65.1667 225.812 64.5C225.938 63.8333 226.083 63.2083 226.25 62.625C226.458 62.0417 226.625 61.4583 226.75 60.875C226.875 60.2917 226.812 59.6875 226.562 59.0625C226.729 59.1875 226.854 59.1667 226.938 59C227.021 58.7917 227.083 58.5417 227.125 58.25C227.167 57.9167 227.188 57.6042 227.188 57.3125C227.188 56.9792 227.167 56.7083 227.125 56.5C227.542 55.4167 227.875 54.3125 228.125 53.1875C228.417 52.0208 228.667 50.875 228.875 49.75C229.125 48.625 229.375 47.5208 229.625 46.4375C229.875 45.3542 230.208 44.3542 230.625 43.4375C231.083 43.3542 231.583 43.4167 232.125 43.625C232.708 43.7917 233.062 44.0208 233.188 44.3125C234.271 43.4792 235.229 42.4792 236.062 41.3125C236.896 40.1042 237.75 38.9375 238.625 37.8125C239.5 36.6875 240.458 35.6875 241.5 34.8125C242.583 33.9375 243.938 33.4167 245.562 33.25C246.396 33.875 247.312 34.5208 248.312 35.1875C249.354 35.8125 250.208 36.6458 250.875 37.6875C251.208 37.8542 251.479 38.0417 251.688 38.25C251.938 38.4167 252.229 38.6042 252.562 38.8125V39.5625C253.062 40.0208 253.458 40.5625 253.75 41.1875C254.083 41.7708 254.375 42.4167 254.625 43.125C254.875 43.7917 255.125 44.4792 255.375 45.1875C255.625 45.8542 255.917 46.5 256.25 47.125C256.167 47.3333 256.125 47.5208 256.125 47.6875C256.125 47.8125 256.146 47.9583 256.188 48.125C256.271 48.2917 256.333 48.4583 256.375 48.625C256.417 48.7917 256.417 49.0208 256.375 49.3125C256.25 51.1458 255.646 52.625 254.562 53.75C253.521 54.875 252.25 55.8125 250.75 56.5625C249.25 57.2708 247.646 57.875 245.938 58.375C244.229 58.875 242.688 59.4167 241.312 60C241.312 60.1667 241.375 60.25 241.5 60.25C241.667 60.25 241.729 60.3542 241.688 60.5625C242.688 61.1875 243.479 61.6875 244.062 62.0625C244.646 62.4375 245.188 62.75 245.688 63C246.229 63.25 246.792 63.4792 247.375 63.6875C248 63.8542 248.854 64.0625 249.938 64.3125C251.021 64.5625 251.854 64.7708 252.438 64.9375C253.062 65.0625 253.625 65.1875 254.125 65.3125C254.625 65.3958 255.125 65.4792 255.625 65.5625C256.167 65.6042 256.917 65.6667 257.875 65.75C258.25 66.125 258.562 66.5833 258.812 67.125C259.104 67.625 259.292 68.1458 259.375 68.6875C259.458 69.1875 259.479 69.6875 259.438 70.1875C259.396 70.6458 259.25 71.0208 259 71.3125C259.042 71.4375 259.125 71.5 259.25 71.5C259.417 71.4583 259.583 71.4583 259.75 71.5C259.5 71.6667 259.292 71.875 259.125 72.125C258.958 72.375 258.792 72.625 258.625 72.875C258.458 73.125 258.271 73.3333 258.062 73.5C257.854 73.7083 257.562 73.8333 257.188 73.875C255.896 74.375 254.271 74.3958 252.312 73.9375C250.354 73.5208 247.875 72.7292 244.875 71.5625C243.375 70.9792 242.146 70.4792 241.188 70.0625C240.271 69.6042 239.458 69.1667 238.75 68.75C238.083 68.2917 237.458 67.8125 236.875 67.3125C236.333 66.8125 235.667 66.2083 234.875 65.5ZM243.812 44.0625C243.354 44.7292 242.833 45.3333 242.25 45.875C241.708 46.4167 241.167 46.9792 240.625 47.5625C240.125 48.1042 239.667 48.7292 239.25 49.4375C238.833 50.1042 238.542 50.8958 238.375 51.8125C239.833 51.6458 241.354 51.25 242.938 50.625C244.521 49.9583 246.021 49.3333 247.438 48.75C247.271 47.4583 246.812 46.4167 246.062 45.625C245.354 44.8333 244.604 44.3125 243.812 44.0625Z" fill="white"/>
<path d="M264.625 41.8125C262.875 41.1042 261.417 40.1042 260.25 38.8125C259.125 37.5208 258.208 36 257.5 34.25C257.917 33.125 258.583 32.1875 259.5 31.4375C260.417 30.6458 261.438 29.9792 262.562 29.4375C263.729 28.8958 264.958 28.4583 266.25 28.125C267.542 27.7917 268.792 27.5 270 27.25C270.25 27.3333 270.375 27.3333 270.375 27.25C270.375 27.1667 270.479 27.2083 270.688 27.375C272.188 26.9167 273.917 26.4792 275.875 26.0625C277.833 25.6042 279.917 25.4375 282.125 25.5625C282.417 25.3958 282.771 25.3125 283.188 25.3125C283.604 25.2708 284.042 25.25 284.5 25.25C284.958 25.25 285.396 25.25 285.812 25.25C286.229 25.2083 286.583 25.125 286.875 25C287.125 25.2917 287.5 25.4792 288 25.5625C288.5 25.6042 289.021 25.8125 289.562 26.1875C289.729 26.2292 289.729 26.1667 289.562 26C289.396 25.7917 289.417 25.6458 289.625 25.5625C290.167 25.5625 290.646 25.6875 291.062 25.9375C291.479 26.1875 291.854 26.4792 292.188 26.8125C292.562 27.1042 292.896 27.375 293.188 27.625C293.521 27.875 293.875 28 294.25 28C294.625 28.4583 295.062 28.8958 295.562 29.3125C296.104 29.6875 296.604 30.0833 297.062 30.5C297.562 30.9167 297.958 31.375 298.25 31.875C298.583 32.375 298.75 32.9375 298.75 33.5625C298.708 33.8125 298.792 33.9583 299 34C299.208 34.0417 299.354 34.1667 299.438 34.375C299.479 35.9167 299.229 37.25 298.688 38.375C298.188 39.5 297.542 40.5417 296.75 41.5C295.958 42.4167 295.104 43.2917 294.188 44.125C293.312 44.9583 292.5 45.8542 291.75 46.8125C292.25 47.4375 292.812 48.0208 293.438 48.5625C294.104 49.0625 294.771 49.5625 295.438 50.0625C296.104 50.5625 296.729 51.1042 297.312 51.6875C297.938 52.2292 298.458 52.8542 298.875 53.5625C299 53.8125 299.271 53.9792 299.688 54.0625C299.812 54.5625 299.979 55.0833 300.188 55.625C300.438 56.125 300.667 56.625 300.875 57.125C301.083 57.5833 301.208 58 301.25 58.375C301.292 58.75 301.188 59.0625 300.938 59.3125C301.229 59.4792 301.396 59.75 301.438 60.125C301.479 60.4583 301.479 60.7292 301.438 60.9375C300.521 62.0625 299.896 62.8542 299.562 63.3125C299.229 63.7708 298.979 64.1042 298.812 64.3125C298.646 64.5208 298.479 64.7083 298.312 64.875C298.146 65.0417 297.771 65.375 297.188 65.875C294.979 67.2083 292.667 68.4167 290.25 69.5C287.875 70.5417 285.396 71.25 282.812 71.625C282.604 71.9167 282.292 72.1458 281.875 72.3125C281.5 72.5208 281.062 72.6875 280.562 72.8125C280.062 72.9375 279.521 73.0417 278.938 73.125C278.396 73.2083 277.896 73.2917 277.438 73.375C277.229 73.2917 277.104 73.1458 277.062 72.9375C277.062 72.7708 276.958 72.6458 276.75 72.5625C276.708 73.0625 276.479 73.3125 276.062 73.3125C275.688 73.3542 275.208 73.2708 274.625 73.0625C274.042 72.8542 273.438 72.5625 272.812 72.1875C272.188 71.8125 271.646 71.4583 271.188 71.125C270.979 71.5 270.708 71.8958 270.375 72.3125C270.083 72.7292 269.771 73.0208 269.438 73.1875C268.854 73.1042 268.417 73.0417 268.125 73C267.875 72.9583 267.625 73.0625 267.375 73.3125C267.042 73.1458 266.792 72.9583 266.625 72.75C266.458 72.5833 266.292 72.3958 266.125 72.1875C265.958 72.0208 265.771 71.875 265.562 71.75C265.354 71.5833 265.042 71.4375 264.625 71.3125C264.708 71.1042 264.646 70.7917 264.438 70.375C264.229 69.9167 263.938 69.6458 263.562 69.5625C263.771 69.2292 263.688 68.8125 263.312 68.3125C262.938 67.7708 262.646 67.1667 262.438 66.5C262.479 66.2083 262.5 65.9167 262.5 65.625C262.542 65.2917 262.583 65 262.625 64.75C262.708 64.4583 262.812 64.2083 262.938 64C263.062 63.7917 263.271 63.6458 263.562 63.5625C263.521 63.0208 263.354 62.5 263.062 62C263.438 61.7083 263.688 61.3542 263.812 60.9375C263.938 60.4792 264.042 60.0208 264.125 59.5625C264.25 59.1042 264.396 58.6667 264.562 58.25C264.729 57.7917 265 57.4167 265.375 57.125C265.292 57 265.208 56.8958 265.125 56.8125C265.042 56.7292 265 56.5833 265 56.375C265.625 55.3333 266.062 54.4583 266.312 53.75C266.562 53 266.75 52.2917 266.875 51.625C267.042 50.9167 267.208 50.1667 267.375 49.375C267.542 48.5833 267.875 47.5833 268.375 46.375C268.333 45.625 268.417 44.9583 268.625 44.375C268.833 43.7917 269.042 43.2292 269.25 42.6875C269.5 42.1042 269.688 41.5 269.812 40.875C269.938 40.25 269.917 39.5208 269.75 38.6875C269.042 38.7708 268.521 39.0208 268.188 39.4375C267.896 39.8542 267.708 40.4167 267.625 41.125C267.25 41.4583 266.771 41.625 266.188 41.625C265.604 41.5833 265.083 41.6458 264.625 41.8125ZM292.125 53.875C290.542 53 289.083 52.4792 287.75 52.3125C286.458 52.1458 285.208 52.1667 284 52.375C282.833 52.5417 281.708 52.7917 280.625 53.125C279.542 53.4583 278.458 53.7083 277.375 53.875C276.833 55.2917 276.271 56.8542 275.688 58.5625C275.104 60.2708 274.542 61.9375 274 63.5625C275.5 63.3542 276.875 63.0417 278.125 62.625C279.375 62.2083 280.583 61.75 281.75 61.25C282.917 60.7083 284.062 60.1875 285.188 59.6875C286.312 59.1458 287.479 58.6458 288.688 58.1875C288.812 57.6875 289.083 57.2917 289.5 57C289.917 56.7083 290.333 56.4375 290.75 56.1875C291.167 55.8958 291.521 55.5833 291.812 55.25C292.104 54.9167 292.208 54.4583 292.125 53.875ZM287.75 34.3125C285.167 34.2292 282.625 34.4583 280.125 35C277.625 35.5417 275.521 36.3333 273.812 37.375C274.646 38.0833 275.5 38.7083 276.375 39.25C277.292 39.7917 277.979 40.5208 278.438 41.4375C280.438 40.6458 282.188 39.6458 283.688 38.4375C285.188 37.1875 286.542 35.8125 287.75 34.3125Z" fill="white"/>
<path d="M339 36.4375C339.083 37.3542 339.229 38.1458 339.438 38.8125C339.646 39.4792 339.875 40.125 340.125 40.75C340.333 41.3333 340.521 41.9167 340.688 42.5C340.896 43.0417 341.042 43.7083 341.125 44.5C340.792 45.5833 340.542 46.5833 340.375 47.5C340.25 48.4167 340.104 49.375 339.938 50.375C339.271 51.8333 338.625 53.125 338 54.25C337.375 55.375 336.875 56.3542 336.5 57.1875C336.292 57.3958 336.104 57.6458 335.938 57.9375C335.812 58.1875 335.667 58.4583 335.5 58.75C335.417 58.875 335.312 59.0625 335.188 59.3125C335.062 59.5625 334.958 59.7292 334.875 59.8125L333.625 59.375L333.375 60.9375L332.5 61.1875L331.875 61.9375C331.083 63.3125 330.25 64.4792 329.375 65.4375C328.5 66.3542 327.5 67.1875 326.375 67.9375C325.292 68.6458 324.042 69.3125 322.625 69.9375C321.25 70.5625 319.688 71.25 317.938 72C317.229 71.9167 316.604 71.875 316.062 71.875C315.562 71.8333 315.083 71.7917 314.625 71.75C313.833 71.75 312.854 71.6875 311.688 71.5625C311.562 71.2292 311.375 71 311.125 70.875C310.875 70.75 310.646 70.6875 310.438 70.6875C309.729 70.3542 309.188 69.875 308.812 69.25C308.479 68.5833 308.146 67.875 307.812 67.125C307.604 66.6667 307.396 66.25 307.188 65.875C306.979 65.4583 306.75 65.0417 306.5 64.625L307.562 64.3125L306.188 62.8125C306.104 62.6875 306 62.5833 305.875 62.5C305.75 62.375 305.646 62.25 305.562 62.125L305.5 61.125C305.375 58.25 305.312 55.625 305.312 53.25C305.354 50.8333 305.688 48.6875 306.312 46.8125V46.125C306.438 45.2083 306.562 44.4583 306.688 43.875C306.812 43.25 306.917 42.6667 307 42.125C307.125 41.2083 307.312 40.3542 307.562 39.5625C308.146 39.4375 308.583 39.2083 308.875 38.875C309.167 38.5 309.417 38.1667 309.625 37.875C310.208 37.8333 310.604 37.9167 310.812 38.125C311.021 38.3333 311.229 38.6667 311.438 39.125C311.646 39.5 311.896 39.9167 312.188 40.375C312.521 40.8333 313 41.1875 313.625 41.4375C313.708 41.7708 313.812 42.125 313.938 42.5C314.104 42.8333 314.271 43.2083 314.438 43.625C314.771 44.3333 315.062 45.0833 315.312 45.875C315.604 46.625 315.771 47.3542 315.812 48.0625C315.396 48.8542 315.062 49.7708 314.812 50.8125C314.604 51.8542 314.458 52.9167 314.375 54C314.333 55.0417 314.354 56.0625 314.438 57.0625C314.562 58.0208 314.75 58.8333 315 59.5L315.375 60.3125L316.438 60.1875C317.688 59.8542 318.812 59.5 319.812 59.125C320.854 58.7083 321.812 58.2292 322.688 57.6875C323.562 57.1458 324.396 56.5208 325.188 55.8125C325.979 55.0625 326.812 54.2083 327.688 53.25C328.562 52.2917 329.312 51.2083 329.938 50C330.604 48.75 331.146 47.4583 331.562 46.125C332.021 44.7917 332.354 43.4792 332.562 42.1875C332.812 40.8542 332.979 39.6042 333.062 38.4375C333.771 38.1875 334.125 37.6875 334.125 36.9375L334 36.25C333.833 36 333.833 35.7083 334 35.375C334.25 34.5833 334.833 33.9792 335.75 33.5625C336.417 33.9792 337 34.4375 337.5 34.9375C338.042 35.4375 338.542 35.9375 339 36.4375Z" fill="white"/>
<path d="M370.375 55.125C370.333 55.3333 370.292 55.5208 370.25 55.6875C370.208 55.8125 370.167 55.9375 370.125 56.0625C370.083 56.1875 370.062 56.3542 370.062 56.5625C370.062 56.7292 370.062 56.9583 370.062 57.25C368.812 59.4583 367.229 61.3125 365.312 62.8125C363.438 64.3125 361.354 65.6458 359.062 66.8125C356.812 67.9375 354.458 68.9792 352 69.9375C349.542 70.8542 347.146 71.8542 344.812 72.9375C343.812 72.6875 343.042 72.2708 342.5 71.6875C342 71.1042 341.604 70.4375 341.312 69.6875C341.062 68.8958 340.875 68.0417 340.75 67.125C340.667 66.1667 340.583 65.1875 340.5 64.1875C340.625 63.7292 340.792 63.3542 341 63.0625C341.25 62.7292 341.375 62.2708 341.375 61.6875C341.708 60.6042 342.042 59.5417 342.375 58.5C342.708 57.4583 342.917 56.3958 343 55.3125C343.125 54.9792 343.354 54.75 343.688 54.625C343.896 52.625 343.896 50.6042 343.688 48.5625C343.521 46.4792 343.188 44.5417 342.688 42.75C342.729 42.3333 342.771 42.0417 342.812 41.875C342.896 41.6667 342.896 41.5208 342.812 41.4375C342.771 41.1042 342.875 40.9375 343.125 40.9375C343.417 40.9375 343.708 40.9375 344 40.9375C344 40.3125 343.875 39.6875 343.625 39.0625C343.417 38.4375 343.208 37.7292 343 36.9375C343.292 36.3125 343.479 35.7083 343.562 35.125C343.646 34.5 343.833 33.9583 344.125 33.5C346.375 34.2083 348.521 35.0625 350.562 36.0625C352.646 37.0625 354.688 37.7917 356.688 38.25C358.188 39.3333 359.729 40.4167 361.312 41.5C362.896 42.5417 364.333 43.7083 365.625 45C366.917 46.25 368 47.6875 368.875 49.3125C369.75 50.9375 370.25 52.875 370.375 55.125ZM355.562 58.5625C356.438 58.2292 357.292 57.875 358.125 57.5C359 57.125 359.792 56.7083 360.5 56.25C361.25 55.75 361.917 55.1875 362.5 54.5625C363.083 53.9375 363.562 53.1875 363.938 52.3125C363.688 51.8125 363.354 51.375 362.938 51C362.521 50.5833 362.104 50.2083 361.688 49.875C361.271 49.5 360.854 49.125 360.438 48.75C360.062 48.375 359.75 47.9167 359.5 47.375C358.958 47.2917 358.479 47.1458 358.062 46.9375C357.646 46.6875 357.229 46.4583 356.812 46.25C356.438 46 356.021 45.7708 355.562 45.5625C355.146 45.3542 354.646 45.2292 354.062 45.1875C353.146 44.7292 352.312 44.3958 351.562 44.1875C350.854 43.9792 350.312 43.7083 349.938 43.375C349.646 43.375 349.417 43.4375 349.25 43.5625C349.667 45.1458 349.979 46.6458 350.188 48.0625C350.396 49.4375 350.5 50.8333 350.5 52.25C350.542 53.625 350.479 55.0417 350.312 56.5C350.146 57.9583 349.917 59.5417 349.625 61.25C350.042 61.2083 350.417 61.125 350.75 61C351.125 60.8333 351.479 60.6667 351.812 60.5C352.188 60.3333 352.562 60.1875 352.938 60.0625C353.354 59.8958 353.833 59.7917 354.375 59.75C354.5 59.5 354.667 59.2917 354.875 59.125C355.125 58.9583 355.354 58.7708 355.562 58.5625Z" fill="white"/>
<path d="M415.688 60.75C414.688 62.5417 413.375 63.9375 411.75 64.9375C410.125 65.8958 408.333 66.7083 406.375 67.375C404.417 68 402.354 68.5625 400.188 69.0625C398.062 69.5625 396 70.2083 394 71C393.417 71 392.896 71.0208 392.438 71.0625C392.021 71.1042 391.604 71.1667 391.188 71.25C390.812 71.2917 390.438 71.3542 390.062 71.4375C389.688 71.4792 389.271 71.5208 388.812 71.5625C388.646 71.5208 388.542 71.5625 388.5 71.6875C388.458 71.7708 388.396 71.8542 388.312 71.9375C387.604 72.0625 386.958 72.125 386.375 72.125C385.833 72.125 385.375 72.125 385 72.125C384.5 72.125 383.979 72.1875 383.438 72.3125C382.938 72.4792 382.479 72.5417 382.062 72.5C378.938 72.3333 376.479 71.2292 374.688 69.1875C372.938 67.1042 371.958 64.2292 371.75 60.5625C371.792 60.3542 371.75 60.2292 371.625 60.1875C371.542 60.1458 371.458 60.0833 371.375 60C371.375 59.5833 371.417 59.2292 371.5 58.9375C371.625 58.6458 371.646 58.2708 371.562 57.8125C372.646 55.5208 373.875 53.3958 375.25 51.4375C376.625 49.4375 378.271 47.6875 380.188 46.1875C380.479 45.9375 380.729 45.6875 380.938 45.4375C381.146 45.1875 381.333 44.9375 381.5 44.6875C381.708 44.4375 381.938 44.2292 382.188 44.0625C382.438 43.8542 382.75 43.7083 383.125 43.625C384 42.625 385.042 41.7083 386.25 40.875C387.458 40.0417 388.729 39.25 390.062 38.5C391.396 37.7083 392.708 36.9375 394 36.1875C395.333 35.3958 396.542 34.5208 397.625 33.5625C398.083 33.7708 398.417 33.8333 398.625 33.75C398.833 33.6667 399.062 33.6667 399.312 33.75C399.604 34.375 400 34.8125 400.5 35.0625C401.042 35.3125 401.562 35.5833 402.062 35.875C402.604 36.125 403.104 36.4375 403.562 36.8125C404.021 37.1875 404.375 37.6875 404.625 38.3125C404.375 38.3125 404.25 38.4167 404.25 38.625C404.292 38.7917 404.354 38.9792 404.438 39.1875C404.521 39.3542 404.542 39.5417 404.5 39.75C404.5 39.9167 404.354 40 404.062 40C404.104 40.2083 404.229 40.3333 404.438 40.375C404.688 40.375 404.812 40.4792 404.812 40.6875C404.812 40.8958 404.75 41.0625 404.625 41.1875C404.542 41.3125 404.542 41.5208 404.625 41.8125C403.792 42.3542 402.854 42.875 401.812 43.375C400.812 43.875 399.75 44.4167 398.625 45C397.542 45.5417 396.396 46.1458 395.188 46.8125C394.021 47.4375 392.875 48.1667 391.75 49C390.625 49.8333 389.479 50.7708 388.312 51.8125C387.146 52.8125 386.021 53.875 384.938 55C383.854 56.125 382.833 57.2917 381.875 58.5C380.917 59.6667 380.104 60.8333 379.438 62C379.521 62.2083 379.604 62.375 379.688 62.5C379.812 62.5833 379.917 62.7292 380 62.9375C381.333 63.0208 382.562 63.0208 383.688 62.9375C384.854 62.8125 386.021 62.875 387.188 63.125C387.312 63.0417 387.396 62.9167 387.438 62.75C387.479 62.5833 387.583 62.4583 387.75 62.375C390.125 62.125 392.333 61.75 394.375 61.25C396.417 60.7083 398.5 60.1458 400.625 59.5625C400.292 59.4375 399.979 59.3333 399.688 59.25C399.438 59.125 399.188 59.0208 398.938 58.9375C398.729 58.7292 398.729 58.5625 398.938 58.4375C399.188 58.2708 399.396 58.1042 399.562 57.9375C398.979 57.6042 398.5 57.1875 398.125 56.6875C397.792 56.1875 397.583 55.5208 397.5 54.6875C397.75 54.4792 397.875 54.2292 397.875 53.9375C397.875 53.6458 397.75 53.4167 397.5 53.25C397.333 53.2083 397.229 53.2083 397.188 53.25C397.146 53.2917 397.104 53.3542 397.062 53.4375C397.062 53.5208 397.042 53.6042 397 53.6875C396.958 53.7292 396.854 53.7083 396.688 53.625C396.729 53.25 396.812 52.9375 396.938 52.6875C397.104 52.4375 397.229 52.1458 397.312 51.8125L401.625 48.9375C402.083 49.2708 402.646 49.6458 403.312 50.0625C403.979 50.4375 404.667 50.8333 405.375 51.25C406.125 51.625 406.875 52.0208 407.625 52.4375C408.417 52.8125 409.146 53.1875 409.812 53.5625C410.396 53.8125 410.917 54.1458 411.375 54.5625C411.833 54.9792 412.271 55.4167 412.688 55.875C413.104 56.2917 413.521 56.7083 413.938 57.125C414.396 57.5417 414.917 57.8958 415.5 58.1875C415.417 58.7292 415.438 59.1667 415.562 59.5C415.688 59.8333 415.729 60.25 415.688 60.75Z" fill="white"/>
<path d="M448 36.8125C448.042 37.1042 448.042 37.3333 448 37.5C448 37.625 447.979 37.75 447.938 37.875C447.938 38 447.938 38.1458 447.938 38.3125C447.938 38.4375 447.979 38.6458 448.062 38.9375C447.188 40.3542 446.167 41.3333 445 41.875C443.875 42.375 442.646 42.75 441.312 43C439.979 43.2083 438.604 43.4375 437.188 43.6875C435.812 43.9375 434.438 44.4792 433.062 45.3125C432.521 45.1042 432.021 45.1042 431.562 45.3125C431.146 45.5208 430.521 45.5833 429.688 45.5C429.438 45.75 429.125 45.9375 428.75 46.0625C428.375 46.1458 428 46.25 427.625 46.375C427.792 46.75 427.854 47.1458 427.812 47.5625C427.812 47.9375 427.875 48.25 428 48.5C429.458 48.625 431.062 48.6042 432.812 48.4375C434.604 48.2708 436.354 48.1667 438.062 48.125C438.104 48.3333 438.083 48.4792 438 48.5625C437.917 48.6042 437.896 48.7083 437.938 48.875C438.229 49.0833 438.521 49.3542 438.812 49.6875C439.104 49.9792 439.396 50.2708 439.688 50.5625C439.979 50.8542 440.271 51.1042 440.562 51.3125C440.896 51.4792 441.271 51.5417 441.688 51.5C441.854 51.8333 441.958 52.2083 442 52.625C442.083 53 442.042 53.3958 441.875 53.8125C441.208 54.2708 440.542 54.75 439.875 55.25C439.208 55.7083 438.5 56.125 437.75 56.5C437.042 56.875 436.271 57.1875 435.438 57.4375C434.646 57.6458 433.75 57.7292 432.75 57.6875C432.542 57.6875 432.375 57.6875 432.25 57.6875C432.167 57.6875 432.042 57.625 431.875 57.5C431.542 57.7083 431.062 57.7708 430.438 57.6875C429.854 57.6042 429.396 57.6667 429.062 57.875C428.604 57.6667 428.042 57.5833 427.375 57.625C426.75 57.625 426.188 57.5417 425.688 57.375C425.021 58.25 424.417 59.1875 423.875 60.1875C423.333 61.1875 422.854 62.25 422.438 63.375C423.854 63.5833 425.021 63.6667 425.938 63.625C426.896 63.5833 427.792 63.5208 428.625 63.4375C429.458 63.3125 430.312 63.2083 431.188 63.125C432.062 63 433.167 62.9583 434.5 63C435.333 62.5417 436.312 62.25 437.438 62.125C438.604 61.9583 439.667 61.7083 440.625 61.375C440.958 61.5 441.25 61.7292 441.5 62.0625C441.75 62.3542 441.979 62.6458 442.188 62.9375C442.438 63.1875 442.688 63.4167 442.938 63.625C443.188 63.8333 443.5 63.9167 443.875 63.875C444.042 64.0417 444.146 64.25 444.188 64.5C444.271 64.7083 444.333 64.9167 444.375 65.125C444.417 65.3333 444.479 65.5208 444.562 65.6875C444.688 65.8125 444.875 65.8542 445.125 65.8125C444.5 67.1875 443.771 68.25 442.938 69C442.146 69.7083 441.229 70.25 440.188 70.625C439.146 71 437.979 71.2917 436.688 71.5C435.438 71.7083 434.042 71.9583 432.5 72.25C432.125 72.3333 431.812 72.3125 431.562 72.1875C431.312 72.1042 431.021 72.0625 430.688 72.0625C429.729 72.2708 428.583 72.4583 427.25 72.625C425.917 72.7917 424.562 72.8542 423.188 72.8125C421.812 72.7708 420.5 72.5833 419.25 72.25C418 71.9583 416.979 71.4167 416.188 70.625C415.854 70.3333 415.625 70 415.5 69.625C415.417 69.2083 415.146 68.8958 414.688 68.6875C414.646 68.1458 414.562 67.5417 414.438 66.875C414.312 66.2083 414.188 65.5208 414.062 64.8125C413.938 64.0625 413.833 63.3333 413.75 62.625C413.708 61.9167 413.75 61.2708 413.875 60.6875C414 60.0625 414.25 59.5 414.625 59C415.042 58.5 415.188 57.9583 415.062 57.375C415.271 57.3333 415.396 57.2292 415.438 57.0625C415.479 56.8542 415.646 56.7708 415.938 56.8125C416.188 56.0625 416.458 55.3542 416.75 54.6875C417.042 54.0208 417.333 53.375 417.625 52.75C417.958 52.125 418.271 51.5 418.562 50.875C418.896 50.2083 419.208 49.4792 419.5 48.6875C418.917 48.1458 418.479 47.5625 418.188 46.9375C417.938 46.2708 417.75 45.625 417.625 45C417.5 44.3333 417.396 43.6667 417.312 43C417.229 42.2917 417.083 41.5833 416.875 40.875C417.292 40.25 417.792 39.75 418.375 39.375C419 38.9583 419.667 38.625 420.375 38.375C421.083 38.125 421.854 37.9167 422.688 37.75C423.521 37.5833 424.396 37.3958 425.312 37.1875C426.979 36.6458 428.458 36.2292 429.75 35.9375C431.083 35.6458 432.375 35.4167 433.625 35.25C434.917 35.0417 436.25 34.8542 437.625 34.6875C439 34.5208 440.562 34.2708 442.312 33.9375C442.688 34.3125 443.042 34.5 443.375 34.5C443.542 34.125 443.729 34.0208 443.938 34.1875C444.188 34.3125 444.292 34.1875 444.25 33.8125C444.667 34.5208 445.188 35.125 445.812 35.625C446.479 36.0833 447.208 36.4792 448 36.8125Z" fill="white"/>
<path d="M482.062 41.9375C481.021 41.9375 479.896 42.0208 478.688 42.1875C477.479 42.3125 476.292 42.4583 475.125 42.625C474.292 42.75 473.479 42.8542 472.688 42.9375C471.938 43.0208 471.25 43.0833 470.625 43.125C470.333 44.0417 470.042 44.8542 469.75 45.5625C469.458 46.2708 469.146 46.9583 468.812 47.625C468.479 48.3333 468.167 49.0625 467.875 49.8125C467.625 50.5208 467.375 51.2917 467.125 52.125C466.708 52.7917 466.354 53.4167 466.062 54C465.812 54.5417 465.604 55.1667 465.438 55.875C464.938 56.5 464.562 57.1667 464.312 57.875C464.062 58.5417 463.875 59.125 463.75 59.625L463.5 60.375C463.25 60.625 463.104 60.8333 463.062 61C463.021 61.125 462.917 61.25 462.75 61.375C462.708 61.8333 462.562 62.2917 462.312 62.75C462.229 62.9583 462.167 63.1667 462.125 63.375C462.083 63.5417 462.062 63.6667 462.062 63.75C462.062 64.1667 461.958 64.4375 461.75 64.5625C461.792 64.7708 461.792 65 461.75 65.25C461.708 65.4583 461.667 65.6667 461.625 65.875C461.5 66.375 461.458 66.7708 461.5 67.0625C461.625 67.2292 461.729 67.375 461.812 67.5C461.938 67.625 462.021 67.7917 462.062 68C462.312 68.1667 462.5 68.2708 462.625 68.3125C462.792 68.4375 463.042 68.5833 463.375 68.75L463.938 69.375C464.146 70.5833 463.958 71.5417 463.375 72.25C462.75 73.0417 461.688 73.4375 460.188 73.4375H459.438C459.229 73.2292 459.104 73.0625 459.062 72.9375C458.729 72.8125 458.458 72.7083 458.25 72.625C458.042 72.5417 457.854 72.375 457.688 72.125C457.146 71.875 456.708 71.6667 456.375 71.5L455.812 71.1875C455.812 70.7292 455.812 70.4792 455.812 70.4375C455.521 70.0625 455.292 69.6458 455.125 69.1875C455 68.7292 454.896 68.2708 454.812 67.8125C454.729 67.4375 454.625 67.0833 454.5 66.75C454.417 66.4167 454.292 66.125 454.125 65.875C454.042 63.4583 454.271 61.4167 454.812 59.75C455.354 58.0833 455.917 56.4792 456.5 54.9375C456.833 54.1042 457.167 53.2708 457.5 52.4375C457.833 51.5625 458.125 50.6667 458.375 49.75L458.938 49.125C459.229 48.4583 459.458 47.9167 459.625 47.5C459.833 47.0417 460.042 46.5833 460.25 46.125C460.375 45.8333 460.479 45.5625 460.562 45.3125C460.688 45.0208 460.792 44.7708 460.875 44.5625C460.625 44.5625 460.396 44.5833 460.188 44.625C459.979 44.625 459.771 44.6458 459.562 44.6875C459.312 44.7292 459.083 44.7708 458.875 44.8125C458.667 44.8125 458.458 44.8125 458.25 44.8125C457.958 44.8125 457.75 44.7917 457.625 44.75C457.167 44.9583 456.667 45.0625 456.125 45.0625H455.5C455.375 45.0625 455.25 45.0625 455.125 45.0625C455.042 45.0208 454.958 45 454.875 45C454.458 45 454.125 45.0625 453.875 45.1875C453.375 45.1875 452.896 45.1875 452.438 45.1875H451.812C451.729 45.1875 451.625 45.2083 451.5 45.25C451.375 45.25 451.271 45.25 451.188 45.25C450.896 45.25 450.583 45.2292 450.25 45.1875C449.917 45.1042 449.562 44.9583 449.188 44.75C448.688 44.0833 448.354 43.7292 448.188 43.6875L447.625 42.9375C447.583 42.6875 447.521 42.4583 447.438 42.25C447.354 42 447.271 41.7292 447.188 41.4375C447.021 41.0208 446.854 40.5833 446.688 40.125C446.562 39.625 446.5 39.0417 446.5 38.375C446.542 38.0417 446.625 37.7917 446.75 37.625C446.875 37.4583 446.979 37.3125 447.062 37.1875L447.25 36.25L448.062 36.3125H449.812C451.146 36.3125 452.5 36.2708 453.875 36.1875C455.25 36.0625 456.667 35.9375 458.125 35.8125C458.958 35.7292 459.792 35.6458 460.625 35.5625C461.5 35.4792 462.396 35.3958 463.312 35.3125C463.479 34.9375 463.646 34.5833 463.812 34.25L464.438 33.9375C465.188 33.8958 465.708 34 466 34.25C466.333 34.4583 466.604 34.6667 466.812 34.875C467.729 34.7917 468.646 34.7083 469.562 34.625C470.521 34.5 471.479 34.3542 472.438 34.1875C473.854 33.9792 475.271 33.7917 476.688 33.625C478.146 33.4583 479.542 33.375 480.875 33.375C481.458 33.375 482.021 33.3958 482.562 33.4375C483.104 33.4792 483.604 33.5417 484.062 33.625L484.688 34.0625C484.812 34.3125 484.979 34.5417 485.188 34.75C485.438 34.9583 485.688 35.1667 485.938 35.375C486.438 35.8333 486.938 36.375 487.438 37C487.938 37.625 488.125 38.5417 488 39.75C487.667 40.25 487.417 40.5417 487.25 40.625L486.688 41.375L486.062 41.3125C485.812 41.3125 485.583 41.3542 485.375 41.4375C485.167 41.4792 484.958 41.5417 484.75 41.625C484.583 41.7083 484.417 41.7917 484.25 41.875C484.083 41.9167 483.896 41.9583 483.688 42C483.312 42 483 42 482.75 42C482.542 41.9583 482.312 41.9375 482.062 41.9375Z" fill="white"/>
</svg>
